<?xml version="1.0" standalone="no"?>
<!DOCTYPE svg PUBLIC "-//W3C//DTD SVG 20010904//EN"
 "http://www.w3.org/TR/2001/REC-SVG-20010904/DTD/svg10.dtd">
<svg version="1.0" xmlns="http://www.w3.org/2000/svg"
 width="64pt" height="64pt" viewBox="0 0 640 640"
 preserveAspectRatio="xMidYMid meet">

  <!-- Definições de gradientes e filtros -->
  <defs>
    <!-- Gradiente radial para o primeiro caminho -->
    <radialGradient id="gradiente1" cx="50%" cy="50%" r="50%">
      <stop offset="0%" style="stop-color:#ff7f50; stop-opacity:1" />
      <stop offset="100%" style="stop-color:#ff4500; stop-opacity:1" />
    </radialGradient>

    <!-- Gradiente linear para o segundo caminho -->
    <linearGradient id="gradiente2" x1="0%" y1="0%" x2="100%" y2="0%">
      <stop offset="0%" style="stop-color:#00bfff; stop-opacity:1" />
      <stop offset="100%" style="stop-color:#1e90ff; stop-opacity:1" />
    </linearGradient>

    <!-- Filtro de sombra projetada -->
    <filter id="sombra" x="-20%" y="-20%" width="140%" height="140%">
      <feOffset result="offOut" in="SourceAlpha" dx="5" dy="5" />
      <feGaussianBlur result="blurOut" in="offOut" stdDeviation="5" />
      <feBlend in="SourceGraphic" in2="blurOut" mode="normal" />
    </filter>
  </defs>

  <!-- Aplicação dos efeitos no gráfico -->
  <g transform="translate(0,640) scale(0.1,-0.1)" filter="url(#sombra)">
    <path d="M96 523 c-10 -10 -7 -71 3 -78 6 -3 14 2 19 11 18 33 31 10 13 -25
    -16 -30 -19 -32 -34 -17 -22 23 -70 22 -65 -1 2 -11 14 -19 31 -21 24 -3 32
    -12 28 -34 0 -5 2 -8 6 -8 5 0 19 25 32 56 13 31 30 62 37 69 15 15 104 19
    104 5 0 -6 -15 -10 -33 -10 -38 0 -55 -15 -86 -77 l-21 -42 21 -3 c18 -3 20
    -11 22 -75 l3 -72 -49 27 c-27 14 -58 37 -69 51 -24 32 -34 19 -41 -53 -10
    -104 -4 -140 23 -153 87 -42 473 -42 560 0 27 13 33 49 23 153 -7 72 -17 85
    -41 53 -11 -14 -42 -37 -69 -51 l-49 -27 3 72 c2 64 4 72 22 75 l21 3 -21 42
    c-37 74 -43 77 -131 77 -59 0 -79 3 -75 13 3 8 26 11 78 10 111 -3 113 -4 145
    -78 25 -56 30 -63 38 -46 5 11 20 21 35 23 32 4 43 38 11 38 -11 0 -31 -7 -44
    -15 -21 -14 -23 -13 -39 20 -13 28 -14 35 -3 35 8 0 17 -7 20 -16 10 -25 26
    -6 26 31 0 32 -11 51 -22 39 -7 -6 -406 -6 -417 0 -4 3 -11 3 -15 -1z m134
    -196 c0 -12 9 -39 20 -60 25 -46 27 -92 4 -83 -9 3 -22 6 -30 6 -11 0 -14 18
    -14 80 0 47 4 80 10 80 6 0 10 -10 10 -23z m-140 -127 c0 -4 11 -11 25 -14 27
    -7 33 -21 11 -29 -12 -5 -40 18 -60 51 -5 8 -2 10 8 6 9 -3 16 -10 16 -14z
    m484 8 c-20 -33 -48 -56 -60 -51 -21 8 -17 21 8 29 12 3 28 13 36 20 17 17 26
    18 16 2z m-184 -98 l0 -30 -70 0 -70 0 0 30 0 30 70 0 70 0 0 -30z"
    fill="url(#gradiente1)" stroke="#000000" stroke-width="5"/>
    
    <path d="M45 339 c-11 -16 -1 -19 13 -3 7 8 8 14 3 14 -5 0 -13 -5 -16 -11z"
    fill="url(#gradiente2)" stroke="#000000" stroke-width="2"/>
    
    <path d="M582 336 c7 -8 15 -12 17 -11 5 6 -10 25 -20 25 -5 0 -4 -6 3 -14z"
    fill="#20b2aa" stroke="#000000" stroke-width="2"/>
  </g>
</svg>
